<svg width="170" height="71" viewBox="0 0 170 71" fill="none" xmlns="http://www.w3.org/2000/svg">
<path d="M1.43466 54V39.4545H4.0696V46.1378H4.24716L9.92188 39.4545H13.1392L7.5142 45.9815L13.1889 54H10.0213L5.68182 47.7642L4.0696 49.6676V54H1.43466ZM14.9698 54V39.4545H24.43V41.6634H17.6048V45.6122H23.94V47.821H17.6048V51.7912H24.4869V54H14.9698ZM26.479 41.6634V39.4545H38.0842V41.6634H33.5884V54H30.9748V41.6634H26.479ZM52.674 46.7273C52.674 48.2945 52.3804 49.6368 51.7933 50.7543C51.2109 51.867 50.4155 52.7192 49.407 53.3111C48.4032 53.9029 47.2644 54.1989 45.9908 54.1989C44.7171 54.1989 43.576 53.9029 42.5675 53.3111C41.5637 52.7145 40.7682 51.8598 40.1811 50.7472C39.5987 49.6297 39.3075 48.2898 39.3075 46.7273C39.3075 45.16 39.5987 43.8201 40.1811 42.7074C40.7682 41.59 41.5637 40.7353 42.5675 40.1435C43.576 39.5516 44.7171 39.2557 45.9908 39.2557C47.2644 39.2557 48.4032 39.5516 49.407 40.1435C50.4155 40.7353 51.2109 41.59 51.7933 42.7074C52.3804 43.8201 52.674 45.16 52.674 46.7273ZM50.0249 46.7273C50.0249 45.6241 49.852 44.6937 49.5064 43.9361C49.1655 43.1738 48.692 42.5985 48.0859 42.2102C47.4799 41.8172 46.7815 41.6207 45.9908 41.6207C45.2 41.6207 44.5017 41.8172 43.8956 42.2102C43.2895 42.5985 42.8137 43.1738 42.468 43.9361C42.1271 44.6937 41.9567 45.6241 41.9567 46.7273C41.9567 47.8305 42.1271 48.7633 42.468 49.5256C42.8137 50.2831 43.2895 50.8584 43.8956 51.2514C44.5017 51.6397 45.2 51.8338 45.9908 51.8338C46.7815 51.8338 47.4799 51.6397 48.0859 51.2514C48.692 50.8584 49.1655 50.2831 49.5064 49.5256C49.852 48.7633 50.0249 47.8305 50.0249 46.7273ZM60.1261 54V39.4545H65.5806C66.698 39.4545 67.6355 39.6629 68.3931 40.0795C69.1554 40.4962 69.7307 41.0691 70.119 41.7983C70.512 42.5227 70.7085 43.3466 70.7085 44.2699C70.7085 45.2027 70.512 46.0312 70.119 46.7557C69.726 47.4801 69.146 48.0507 68.3789 48.4673C67.6119 48.8793 66.6673 49.0852 65.5451 49.0852H61.93V46.919H65.19C65.8434 46.919 66.3784 46.8054 66.7951 46.5781C67.2118 46.3509 67.5195 46.0384 67.7184 45.6406C67.922 45.2429 68.0238 44.786 68.0238 44.2699C68.0238 43.7538 67.922 43.2992 67.7184 42.9062C67.5195 42.5133 67.2094 42.2079 66.788 41.9901C66.3713 41.7675 65.8339 41.6562 65.1758 41.6562H62.761V54H60.1261ZM72.9972 54V39.4545H75.6321V51.7912H82.0384V54H72.9972ZM86.7401 54H83.9276L89.0483 39.4545H92.3011L97.429 54H94.6165L90.7315 42.4375H90.6179L86.7401 54ZM86.8324 48.2969H94.5028V50.4134H86.8324V48.2969ZM111.298 39.4545V54H108.954L102.1 44.0923H101.98V54H99.3448V39.4545H101.703L108.549 49.3693H108.677V39.4545H111.298Z" fill="#2A5479"/>
<path d="M117.989 21.7507C121.081 15.8659 110.885 1 103.466 1" stroke="#228200" stroke-width="2"/>
<path d="M90.6038 35.4275C74.7263 28.5106 71.928 11.3755 93.4334 11.3755C114.939 11.3755 118.9 24.2715 118.9 27.5727C114.499 17.9834 138.802 5.05594 161.816 15.62C188.227 36.8424 134.463 69.3833 118.9 69.3833" stroke="#228200" stroke-width="2"/>
</svg>
